HIERARCHY
ROOT hip
{
  OFFSET 0 0 0
  CHANNELS 6 Xposition Yposition Zposition Zrotation Yrotation Xrotation
  JOINT abdomen
  {
    OFFSET 0 20.6881 -0.73152
    CHANNELS 3 Zrotation Xrotation Yrotation
    JOINT chest
    {
      OFFSET 0 11.7043 -0.48768
      CHANNELS 3 Zrotation Xrotation Yrotation
      JOINT neck
      {
        OFFSET 0 22.1894 -2.19456
        CHANNELS 3 Zrotation Xrotation Yrotation
        JOINT head
        {
          OFFSET -0.24384 7.07133 1.2192
          CHANNELS 3 Zrotation Xrotation Yrotation
          JOINT leftEye
          {
            OFFSET 4.14528 8.04674 8.04672
            CHANNELS 3 Zrotation Xrotation Yrotation
            End Site
            {
              OFFSET 1 0 0
            }
          }
          JOINT rightEye
          {
            OFFSET -3.6576 8.04674 8.04672
            CHANNELS 3 Zrotation Xrotation Yrotation
            End Site
            {
              OFFSET 1 0 0
            }
          }
        }
      }
      JOINT rCollar
      {
        OFFSET -2.68224 19.2634 -4.8768
        CHANNELS 3 Zrotation Xrotation Yrotation
        JOINT rShldr
        {
          OFFSET -8.77824 -1.95073 1.46304
          CHANNELS 3 Zrotation Xrotation Yrotation
          JOINT rForeArm
          {
            OFFSET -28.1742 -1.7115 0.48768
            CHANNELS 3 Zrotation Xrotation Yrotation
            JOINT rHand
            {
              OFFSET -22.5879 0.773209 7.07136
              CHANNELS 3 Zrotation Xrotation Yrotation
              JOINT rThumb1
              {
                OFFSET -1.2192 -0.487915 3.41376
                CHANNELS 3 Zrotation Xrotation Yrotation
                JOINT rThumb2
                {
                  OFFSET -3.37035 -0.52449 3.41376
                  CHANNELS 3 Zrotation Xrotation Yrotation
                  End Site
                  {
                    OFFSET -1.78271 -1.18214 1.43049
                  }
                }
              }
              JOINT rIndex1
              {
                OFFSET -7.75947 0.938293 5.60832
                CHANNELS 3 Zrotation Xrotation Yrotation
                JOINT rIndex2
                {
                  OFFSET -2.54057 -0.884171 1.56538
                  CHANNELS 3 Zrotation Xrotation Yrotation
                  End Site
                  {
                    OFFSET -1.62519 -0.234802 1.16502
                  }
                }
              }
              JOINT rMid1
              {
                OFFSET -8.24714 1.18213 3.41376
                CHANNELS 3 Zrotation Xrotation Yrotation
                JOINT rMid2
                {
                  OFFSET -3.10165 -0.590103 1.0647
                  CHANNELS 3 Zrotation Xrotation Yrotation
                  End Site
                  {
                    OFFSET -2.48547 -0.328903 0.83742
                  }
                }
              }
              JOINT rRing1
              {
                OFFSET -8.82822 0.546677 1.51678
                CHANNELS 3 Zrotation Xrotation Yrotation
                JOINT rRing2
                {
                  OFFSET -2.60934 -0.819778 -0.0198488
                  CHANNELS 3 Zrotation Xrotation Yrotation
                  End Site
                  {
                    OFFSET -2.33842 -0.294052 0.168128
                  }
                }
              }
              JOINT rPinky1
              {
                OFFSET -8.27202 -0.0477905 -0.4584
                CHANNELS 3 Zrotation Xrotation Yrotation
                JOINT rPinky2
                {
                  OFFSET -1.82734 -0.647385 -0.700984
                  CHANNELS 3 Zrotation Xrotation Yrotation
                  End Site
                  {
                    OFFSET -1.69225 -0.51767 -0.607171
                  }
                }
              }
            }
          }
        }
      }
      JOINT lCollar
      {
        OFFSET 2.68224 19.2634 -4.8768
        CHANNELS 3 Zrotation Xrotation Yrotation
        JOINT lShldr
        {
          OFFSET 8.77824 -1.95073 1.46304
          CHANNELS 3 Zrotation Xrotation Yrotation
          JOINT lForeArm
          {
            OFFSET 28.1742 -1.7115 0.48768
            CHANNELS 3 Zrotation Xrotation Yrotation
            JOINT lHand
            {
              OFFSET 22.5879 0.773209 7.07136
              CHANNELS 3 Zrotation Xrotation Yrotation
              JOINT lThumb1
              {
                OFFSET 1.2192 -0.487915 3.41376
                CHANNELS 3 Zrotation Xrotation Yrotation
                JOINT lThumb2
                {
                  OFFSET 3.37035 -0.52449 3.41376
                  CHANNELS 3 Zrotation Xrotation Yrotation
                  End Site
                  {
                    OFFSET 1.78271 -1.18214 1.43049
                  }
                }
              }
              JOINT lIndex1
              {
                OFFSET 7.75947 0.938293 5.60832
                CHANNELS 3 Zrotation Xrotation Yrotation
                JOINT lIndex2
                {
                  OFFSET 2.54057 -0.884171 1.56538
                  CHANNELS 3 Zrotation Xrotation Yrotation
                  End Site
                  {
                    OFFSET 1.62519 -0.234802 1.16502
                  }
                }
              }
              JOINT lMid1
              {
                OFFSET 8.24714 1.18213 3.41376
                CHANNELS 3 Zrotation Xrotation Yrotation
                JOINT lMid2
                {
                  OFFSET 3.10165 -0.590103 1.0647
                  CHANNELS 3 Zrotation Xrotation Yrotation
                  End Site
                  {
                    OFFSET 2.48547 -0.328903 0.83742
                  }
                }
              }
              JOINT lRing1
              {
                OFFSET 8.82822 0.546677 1.51678
                CHANNELS 3 Zrotation Xrotation Yrotation
                JOINT lRing2
                {
                  OFFSET 2.60934 -0.819778 -0.0198488
                  CHANNELS 3 Zrotation Xrotation Yrotation
                  End Site
                  {
                    OFFSET 2.33842 -0.294052 0.168128
                  }
                }
              }
              JOINT lPinky1
              {
                OFFSET 8.27202 -0.0477905 -0.4584
                CHANNELS 3 Zrotation Xrotation Yrotation
                JOINT lPinky2
                {
                  OFFSET 1.82734 -0.647385 -0.700984
                  CHANNELS 3 Zrotation Xrotation Yrotation
                  End Site
                  {
                    OFFSET 1.69225 -0.51767 -0.607171
                  }
                }
              }
            }
          }
        }
      }
    }
  }
  JOINT rButtock
  {
    OFFSET -8.77824 4.35084 1.2192
    CHANNELS 3 Zrotation Xrotation Yrotation
    JOINT rThigh
    {
      OFFSET 0 -1.70687 -2.19456
      CHANNELS 3 Zrotation Xrotation Yrotation
      JOINT rShin
      {
        OFFSET 0 -36.8199 0.73152
        CHANNELS 3 Zrotation Xrotation Yrotation
        JOINT rFoot
        {
          OFFSET 0.73152 -45.1104 -5.12064
          CHANNELS 3 Zrotation Xrotation Yrotation
          End Site
          {
            OFFSET -1.1221 -3.69964 12.103
          }
        }
      }
    }
  }
  JOINT lButtock
  {
    OFFSET 8.77824 4.35084 1.2192
    CHANNELS 3 Zrotation Xrotation Yrotation
    JOINT lThigh
    {
      OFFSET 0 -1.70687 -2.19456
      CHANNELS 3 Zrotation Xrotation Yrotation
      JOINT lShin
      {
        OFFSET 0 -36.8199 0.73152
        CHANNELS 3 Zrotation Xrotation Yrotation
        JOINT lFoot
        {
          OFFSET -0.73152 -45.1104 -5.12064
          CHANNELS 3 Zrotation Xrotation Yrotation
          End Site
          {
            OFFSET 1.1221 -3.69964 12.103
          }
        }
      }
    }
  }
}
MOTION
Frames:	4
Frame Time:	0.03333
-10.99756124522537 -1.9390567541122437 43.17235730215907 -10.78799955546856 89.9444192647934 14.2015939950943 9.274704605340958 11.598046123981476 -6.7129723727703094 8.244675993919373 -12.081833481788635 -2.861911989748478 -7.69764818251133 22.067981958389282 -17.705704271793365 8.335099965333939 -30.26769071817398 -22.953875362873077 2.4499277025461197 -1.8503758683800697 0.8615183271467686 -1.0100419633090496 0.42619630694389343 -1.0992240719497204 -1.9113528728485107 3.5897599160671234 -3.5907546803355217 36.437388360500336 2.1866320073604584 24.415977001190186 -31.235893070697784 -24.682610034942627 54.80904221534729 -0.1156303659081459 10.05064956843853 22.991729378700256 -0.6757764844223857 -0.05778869614005089 -5.187690630555153 5.223424360156059 1.0185824520885944 -2.164735794067383 7.983163967728615 2.0168622583150864 -0.5745724216103554 8.48729521036148 3.7146717309951782 3.625875860452652 1.7682632245123386 -1.1536971386522055 5.347587168216705 3.157780095934868 -1.0809436440467834 -2.6884635910391808 -2.635200619697571 1.7396583035588264 -4.397556781768799 6.332747787237167 -6.067947372794151 -0.2549312263727188 -3.5896261408925056 3.0393867194652557 -1.1479908227920532 0.4514041682705283 0.7958575151860714 -5.268800295889378 2.154205944389105 1.3097893819212914 -2.7052594162523746 2.6564088463783264 57.585976123809814 -81.4657312631607 31.049640476703644 -52.327258586883545 -92.25905299186707 2.907000593841076 -51.5832245349884 21.890435814857483 -2.535729557275772 1.2824253179132938 2.8700317069888115 -0.5740415118634701 11.422584056854248 -3.068632185459137 1.3789156079292297 -1.3765136897563934 -0.3484985791146755 -8.664355874061584 6.755703315138817 1.7228173837065697 -0.08005538955330849 0.5229885131120682 -0.6013965234160423 -5.62715046107769 -3.133416920900345 4.091906659305096 7.411323711276054 -2.4521769024431705 -0.712272422388196 -10.516755133867264 -1.0317787528038025 0.05309751257300377 1.5376178920269012 1.216091439127922 -1.5460165590047836 -3.1842363998293877 -5.071762539446354 -0.6683157943189144 -0.30628649750724435 -3.725952096283436 3.7578703835606575 -69.44282054901123 -51.27339720726013 -69.0932160615921 -4.664731286466122 69.50941979885101 3.723773807287216 -0.41167818009853363 -2.660854607820511 7.910214588046074 7.237746566534042 -0.09792711585760117 -3.7913842499256134 56.338512897491455 -42.127549946308136 38.69651913642883 6.525176167488098 84.90555167198181 -14.659076929092407 10.543754920363426 -14.583040326833725 18.169372379779816
-11.492312579415739 -0.7590911984443665 42.96916685625911 -12.892331331968307 80.60538589954376 9.984840229153633 7.174721360206604 17.334564328193665 -1.8236645869910717 8.710327595472336 -11.445853561162949 -4.536351375281811 -10.16554869711399 18.692357540130615 -14.728264510631561 9.858537688851357 -31.037009954452515 -19.346719980239868 3.5076870024204254 -2.8781145438551903 1.4435415901243687 -5.515168234705925 3.6264538764953613 -0.6346825696527958 -1.3172427378594875 0.3138020262122154 -1.725548543035984 39.93284851312637 8.774944692850113 23.321686685085297 -27.652491331100464 -23.286171555519104 53.1742787361145 -4.507822059094906 2.3491906374692917 20.538390576839447 2.2064806893467903 -1.44086055457592 -4.661235362291336 5.414794608950615 1.0185214318335056 1.817929521203041 3.0909015610814095 6.409628614783287 0.7655004411935806 9.511646255850792 5.857699736952782 2.76462709531188 -3.43809574842453 -2.851773239672184 1.1830583587288857 1.5319599397480488 -3.4822532907128334 -0.3843080811202526 -2.8371575474739075 0.013695023953914642 -6.638932004570961 4.4249314069747925 -6.567604690790176 -2.456224523484707 -7.944197505712509 5.592319294810295 -1.8028829991817474 3.5054463520646095 -1.339524518698454 -5.42791698127985 7.960200235247612 2.078605704009533 0.9298368729650974 16.00528836250305 57.10644006729126 -90.96525192260742 32.71024703979492 -46.999163031578064 -90.65196990966797 4.478050209581852 -46.964675188064575 16.49000644683838 -6.992902457714081 0.027415738441050053 2.616769652813673 -2.2121855802834034 2.182134948670864 -6.550101935863495 7.696704715490341 -7.724479660391808 4.629966840147972 -14.302123188972473 6.749478578567505 3.505033291876316 -0.3880849666893482 -1.1109915934503078 -2.3784542083740234 -4.726340286433697 3.2057996839284897 -1.2374401465058327 -2.863064333796501 -4.5846133679151535 7.183857634663582 -14.143980145454407 -1.3876907899975777 0.04359528422355652 -1.2204932793974876 -4.8371497169137 -8.88396441936493 -2.3825549706816673 -2.184292785823345 2.210623025894165 3.2752135768532753 -6.8748316168785095 -0.12289915233850479 -64.77475762367249 -49.65426564216614 -67.59813666343689 -12.496173083782196 64.71273422241211 2.7462950348854065 4.333416447043419 -1.6706326603889465 12.828655689954758 2.190372012555599 -0.26163607835769653 -5.689762607216835 48.133458495140076 -43.18517178297043 36.36891156435013 9.341549277305603 84.88135278224945 -8.720331564545631 6.28255695104599 -10.728022009134293 23.67078959941864
-12.036098926328123 1.5013375282287598 42.93628031015396 11.66056975722313 83.92439424991608 12.570159137248993 -2.9609525576233864 21.059952825307846 -4.489924684166908 2.961031347513199 -13.790314793586731 -7.3683372884988785 -3.7506233900785446 16.322261095046997 -9.51813317835331 6.417824104428291 -25.648730993270874 -12.535545229911804 -4.337256029248238 3.925512470304966 2.40696357563138 -3.885423168540001 8.361881151795387 3.7776969373226166 3.564790226519108 -0.20322812721133232 -1.7521822080016136 49.58324074745178 6.638999730348587 15.892777740955353 -25.944699347019196 -21.381144672632217 54.47596549987793 0.3088037297129631 4.956128150224686 9.459589272737503 -1.7020557448267937 2.111410964280367 -6.980637386441231 5.829404443502426 -2.0304283685982227 -1.1466202139854431 0.8370056189596653 5.701094940304756 0.90183075517416 9.501239955425262 4.728293269872665 0.7978084869682789 -3.2999636605381966 -8.353930413722992 -6.149142533540726 -1.5161600522696972 -2.909424640238285 0.7228389009833336 -6.944245845079422 2.692907676100731 -5.878771170973778 5.296088755130768 -10.350755229592323 -1.5818139910697937 -8.807660937309265 4.591576382517815 -4.470734819769859 2.3102543503046036 -1.582311037927866 -6.434205695986748 2.8110946901142597 2.8418272733688354 6.5708112716674805 23.20310890674591 47.59868502616882 -95.52255034446716 36.72089785337448 -47.45912432670593 -88.65621328353882 7.613573670387268 -42.32849836349487 21.679356694221497 -3.527107536792755 2.878843769431114 1.4194872044026852 -3.370032012462616 6.789324134588242 -4.512588679790497 6.718768626451492 -2.461525574326515 2.668361607939005 -12.182705998420715 5.983923822641373 2.587469033896923 2.507998365908861 -3.3231691271066666 -3.5644016414880753 -5.667625665664673 1.2710364069789648 -3.557061441242695 -8.941726461052895 -3.4228017926216125 9.557715207338333 -10.69167673587799 -0.8005129918456078 0.8168526738882065 -3.455732949078083 -2.835347391664982 -6.453490778803825 -2.174508757889271 -3.874000981450081 0.34167202189564705 0.312887707259506 -2.5227431394159794 -2.5411855056881905 -80.80524802207947 -60.44909477233887 -72.29680895805359 -2.4135639891028404 65.75665533542633 -15.118890702724457 1.6934394836425781 4.658609479665756 10.704989209771156 2.2131915763020515 -1.28133499994874 -5.303365588188171 35.77775537967682 -39.66324895620346 30.894005298614502 18.960857391357422 80.76326072216034 -5.978561416268349 6.571124419569969 -12.116230130195618 22.561733722686768
-12.487853198312223 0.5422232747077942 42.93846085318364 33.9205938577652 85.32177150249481 5.98721019923687 7.3787107318639755 26.801324486732483 -5.625016763806343 5.327765643596649 -17.3574435710907 -3.119856007397175 -4.708428159356117 19.556983709335327 -1.0173365660011768 3.755205273628235 -23.35868239402771 -3.4019429236650467 -7.736388668417931 2.730124332010746 1.9074692018330097 -5.924740880727768 6.63047768175602 2.7614077739417553 4.380940832197666 1.1508949846029282 0.4339538421481848 59.726797342300415 9.889536648988724 -8.595729544758797 -25.045134723186493 -27.61562705039978 61.44554078578949 2.6616589352488518 9.281002432107925 14.309668242931366 0.7775076851248741 -3.2768091559410095 -4.589734375476837 2.8277121484279633 -1.9219284877181053 -4.233808591961861 1.3139474764466286 2.570188734680414 -3.633115142583847 7.4466946721076965 5.786552801728249 1.5663250721991062 -1.1556099727749825 -8.706627488136292 -0.5317140743136406 2.8229237347841263 -1.1439302936196327 0.1310698315501213 -5.984310731291771 -0.16131073236465454 -1.0751995258033276 9.251337200403214 -7.4452905356884 -1.4152441173791885 -2.3437893390655518 2.706905286759138 -5.225748158991337 5.803323984146118 0.6598084978759289 -6.66719913482666 -2.5076843798160553 0.8740242943167686 6.488233432173729 27.79066801071167 36.854538917541504 -98.92228245735168 33.838923275470734 -57.25748062133789 -100.58432936668396 6.096304357051849 -39.879475235939026 24.017191529273987 0.6076343357563019 1.3049650937318802 -3.289949968457222 -0.05943121388554573 4.68138512223959 -3.755372241139412 4.001949727535248 1.9707044586539268 1.6553033329546452 -8.17683756351471 8.178660124540329 -1.1005398631095886 5.889546275138855 -6.307656392455101 5.85676833987236 -6.235644444823265 0.4581265803426504 0.23339979350566864 0.5289819091558456 -4.331579804420471 6.210616752505302 -8.617625087499619 2.4290141835808754 1.071542501449585 -3.11511117964983 -0.8840171992778778 -1.910911649465561 -6.289312094449997 -3.583727292716503 -3.37058387696743 0.9955598786473274 -3.681112602353096 -1.6485369578003883 -77.40509748458862 -62.43626832962036 -61.58902823925018 6.958395838737488 69.88244533538818 -32.51510560512543 1.2810766696929932 14.940262287855148 -2.2931007854640484 4.967871196568012 -0.20915430039167404 -2.08299832418561 36.356281042099 -43.451576828956604 30.824970602989197 8.843717873096466 77.65628635883331 5.027120523154736 9.010752439498901 -14.181423783302307 16.95164144039154
